<?xml version="1.0" encoding="UTF-8"?>
<svg xmlns="http://www.w3.org/2000/svg" viewBox="0 0 500 372.61">
  <defs>
    <style>
      .cls-1 {
        fill: #f0f0f0;
      }

      .cls-2, .cls-3, .cls-4, .cls-5, .cls-6, .cls-7, .cls-8, .cls-9, .cls-10, .cls-11 {
        fill: #fff;
      }

      .cls-12 {
        fill: #fafafa;
      }

      .cls-13 {
        fill: #aa473d;
      }

      .cls-3, .cls-14, .cls-9 {
        opacity: .4;
      }

      .cls-15 {
        fill: #f5f5f5;
      }

      .cls-4, .cls-5, .cls-16 {
        opacity: .3;
      }

      .cls-17 {
        fill: #ebb376;
      }

      .cls-5, .cls-6, .cls-18, .cls-9, .cls-19, .cls-11 {
        isolation: isolate;
      }

      .cls-20 {
        fill: none;
        stroke: #263238;
        stroke-linecap: round;
        stroke-linejoin: round;
        stroke-width: .72px;
      }

      .cls-21 {
        fill: #e0e0e0;
      }

      .cls-6, .cls-19 {
        opacity: .1;
      }

      .cls-7 {
        opacity: .7;
      }

      .cls-22 {
        fill: #e6e6e6;
      }

      .cls-18, .cls-8, .cls-11 {
        opacity: .2;
      }

      .cls-23 {
        fill: #ebebeb;
      }

      .cls-24, .cls-16 {
        fill: #407bff;
      }

      .cls-10 {
        opacity: .6;
      }

      .cls-25 {
        fill: #e4897b;
      }

      .cls-26 {
        fill: #263238;
      }
    </style>
  </defs>
  <g id="Background_Complete" data-name="Background Complete">
    <g>
      <rect class="cls-23" y="327.45" width="500" height=".25"/>
      <rect class="cls-23" x="416.78" y="343.54" width="33.12" height=".25"/>
      <rect class="cls-23" x="322.53" y="346.26" width="8.69" height=".25"/>
      <rect class="cls-23" x="396.59" y="334.26" width="19.19" height=".25"/>
      <rect class="cls-23" x="52.46" y="335.94" width="43.19" height=".25"/>
      <rect class="cls-23" x="104.56" y="335.94" width="6.33" height=".25"/>
      <rect class="cls-23" x="131.47" y="340.16" width="93.68" height=".25"/>
      <path class="cls-23" d="m237.01,282.85H43.91c-3.15,0-5.71-2.56-5.71-5.71V5.71c0-3.15,2.56-5.71,5.71-5.71h193.1c3.15,0,5.71,2.56,5.71,5.71v271.43c0,3.15-2.56,5.71-5.71,5.71ZM43.91.25c-3.01,0-5.46,2.45-5.46,5.46v271.43c0,3.01,2.45,5.46,5.46,5.46h193.1c3.01,0,5.46-2.45,5.46-5.46V5.71c0-3.01-2.45-5.46-5.46-5.46H43.91Z"/>
      <path class="cls-23" d="m453.31,282.85h-193.1c-3.15,0-5.71-2.56-5.71-5.71V5.71c0-3.15,2.56-5.71,5.71-5.71h193.1c3.15,0,5.71,2.56,5.71,5.71v271.43c0,3.15-2.56,5.71-5.71,5.71ZM260.21.25c-3.01,0-5.46,2.45-5.46,5.46v271.43c0,3.01,2.45,5.46,5.46,5.46h193.1c3.01,0,5.46-2.45,5.46-5.46V5.71c0-3.01-2.45-5.46-5.46-5.46h-193.1Z"/>
    </g>
    <g>
      <g>
        <path class="cls-15" d="m316.54,227.5h120.14c0,4.41-3.47,8.03-7.88,8.23-12.91.58-32.77,2.63-39.07,9.77-11.74,13.32-10.6,60.09,3.46,70.93,4.41,3.4,17.26,10.14,17.26,10.14h-67.69s12.01-6.88,16.19-10.14c13.98-10.92,14.39-57.67,2.6-70.93-6.05-6.8-24.67-9-37.16-9.69-4.41-.24-7.85-3.9-7.85-8.31Z"/>
        <path class="cls-22" d="m421.8,236.17c-12.2.98-26.83,3.39-32.07,9.33-1.55,1.76-2.87,4.11-3.97,6.88h-20.18c-1.13-2.77-2.47-5.12-4.03-6.88-5.26-5.91-20.01-8.34-31.98-9.33h92.23Z"/>
      </g>
      <g>
        <polygon class="cls-23" points="367.72 227.56 369.35 208.89 345.67 208.89 344.04 227.56 367.72 227.56"/>
        <polygon class="cls-21" points="367.72 227.56 369.35 208.89 370.63 208.89 369 227.56 367.72 227.56"/>
        <polygon class="cls-1" points="365.47 225.66 366.77 210.79 347.92 210.79 346.62 225.66 365.47 225.66"/>
        <polygon class="cls-12" points="364.03 224.43 365.11 212.01 349.37 212.01 348.28 224.43 364.03 224.43"/>
      </g>
      <g>
        <g>
          <polygon class="cls-22" points="375.4 227.5 399.19 227.5 396.55 197.33 372.76 197.33 375.4 227.5"/>
          <polygon class="cls-21" points="375.4 227.5 374.27 227.5 371.63 197.33 372.76 197.33 375.4 227.5"/>
          <polygon class="cls-1" points="377.56 224.43 396.5 224.43 394.4 200.41 375.46 200.41 377.56 224.43"/>
          <polygon class="cls-12" points="378.95 222.45 394.77 222.45 393.01 202.39 377.19 202.39 378.95 222.45"/>
        </g>
        <path class="cls-23" d="m386.94,211.41h0c-1.07,1.07-2.82,1.07-3.89,0h0c-1.07-1.07-1.07-2.82,0-3.89h0c1.07-1.07,2.82-1.07,3.89,0h0c1.07,1.07,1.07,2.82,0,3.89Z"/>
        <path class="cls-1" d="m385.77,214.78h0c.79-.79,2.06-.79,2.85,0h0c1.27,1.27.37,3.44-1.43,3.44h0c-1.8,0-2.69-2.17-1.42-3.44Z"/>
      </g>
      <g>
        <rect class="cls-21" x="81.73" y="69.03" width="112.19" height="124.08" transform="translate(275.64 262.13) rotate(180)"/>
        <rect class="cls-1" x="78.15" y="69.03" width="116.36" height="124.08" transform="translate(272.65 262.13) rotate(180)"/>
        <rect class="cls-2" x="83.07" y="72.98" width="106.7" height="114.42" transform="translate(272.84 260.39) rotate(180)"/>
        <rect class="cls-21" x="83.07" y="72.98" width="3.09" height="114.42" transform="translate(169.22 260.39) rotate(180)"/>
        <rect class="cls-21" x="136.39" y="104.7" width="3.09" height="104.22" transform="translate(-18.87 294.74) rotate(-90)"/>
        <rect class="cls-1" x="83.07" y="150.08" width="108.36" height="5.18" transform="translate(274.49 305.35) rotate(180)"/>
      </g>
      <g>
        <path class="cls-22" d="m378.39,90.27s1-6.6-3.81-10.83c-4.81-4.23-4.39-6.75-3.01-7.08,1.38-.33,2.64,3.9,4.76,5.07,0,0,.07-6.03-2.08-8.25-2.15-2.22-3.28-7.94-1.23-8.04,2.04-.1,2.26,3.4,2.68,5.88s2.7,5.97,2.7,5.97c0,0,.44-5.39,1.83-7.62,1.39-2.22-2.31-7.3-.89-9.52,1.43-2.22,3.97,2.01,3.75,6.77s-3.38,9.84-2.64,14.81c0,0,1.4-3.49,2.66-3.81,1.26-.32,2.53-2.63,3.37-3.48s1.9,2.11,0,4.86c-1.9,2.75-6.77,10.11-6.03,16.05l-2.06-.78Z"/>
        <path class="cls-15" d="m375.51,87.27l-1.58,9.89c-.49,3.05,1.87,5.82,4.97,5.82h1.68c3.09,0,5.45-2.77,4.97-5.82l-1.58-9.89h-8.46Z"/>
        <rect class="cls-22" x="287.94" y="99.33" width="111.4" height="5.72"/>
        <rect class="cls-1" x="293.07" y="78.23" width="4.91" height="21.1"/>
        <rect class="cls-1" x="316.8" y="78.23" width="4.91" height="21.1"/>
        <rect class="cls-1" x="345.57" y="77.96" width="4.91" height="21.1" transform="translate(-9.98 60.4) rotate(-9.78)"/>
        <rect class="cls-1" x="299.15" y="81.01" width="4.91" height="18.32"/>
        <rect class="cls-1" x="310.43" y="81.01" width="4.91" height="18.32"/>
        <rect class="cls-1" x="338.91" y="81.01" width="4.91" height="18.32"/>
        <rect class="cls-1" x="325.29" y="80.69" width="4.91" height="18.32" transform="translate(-11.69 73.23) rotate(-12.53)"/>
        <rect class="cls-1" x="305.85" y="77.18" width="2.45" height="22.15"/>
        <rect class="cls-1" x="335.04" y="77.18" width="2.45" height="22.15"/>
      </g>
      <g>
        <rect class="cls-22" x="287.94" y="142.06" width="111.4" height="5.72" transform="translate(687.29 289.84) rotate(180)"/>
        <rect class="cls-1" x="389.31" y="120.96" width="4.91" height="21.1" transform="translate(783.53 263.01) rotate(180)"/>
        <rect class="cls-1" x="365.58" y="120.96" width="4.91" height="21.1" transform="translate(736.07 263.01) rotate(180)"/>
        <rect class="cls-1" x="336.81" y="120.69" width="4.91" height="21.1" transform="translate(651.31 318.2) rotate(-170.22)"/>
        <rect class="cls-1" x="383.23" y="123.74" width="4.91" height="18.32" transform="translate(771.37 265.79) rotate(180)"/>
        <rect class="cls-1" x="371.95" y="123.74" width="4.91" height="18.32" transform="translate(748.81 265.79) rotate(180)"/>
        <rect class="cls-1" x="343.48" y="123.74" width="4.91" height="18.32" transform="translate(691.86 265.79) rotate(180)"/>
        <rect class="cls-1" x="357.09" y="123.42" width="4.91" height="18.32" transform="translate(681.77 339.99) rotate(-167.47)"/>
        <rect class="cls-1" x="378.99" y="119.91" width="2.45" height="22.15" transform="translate(760.43 261.97) rotate(180)"/>
        <rect class="cls-1" x="349.79" y="119.91" width="2.45" height="22.15" transform="translate(702.04 261.97) rotate(180)"/>
        <rect class="cls-15" x="298.63" y="125.36" width="23.91" height="16.51" transform="translate(621.18 267.22) rotate(180)"/>
      </g>
    </g>
  </g>
  <g id="Shadow">
    <ellipse id="_Path_" data-name="&amp;lt;Path&amp;gt;" class="cls-15" cx="250" cy="361.29" rx="193.89" ry="11.32"/>
  </g>
  <g id="Plant">
    <g>
      <path class="cls-24" d="m332.47,336.28s-4.95-10.81.71-21.46c5.66-10.65,7.3-13.16,3.69-15.34-3.61-2.18-5.26,8.52-5.26,8.52,0,0-3.04-7.36-.53-15.07,2.51-7.71,4.09-20.26.66-21.61-3.43-1.35-.65,15.66-3.63,21.46,0,0-2.5-6.45-2.91-12.64s.23-16.07-2.48-18.61c-2.71-2.54-4.44-.78-1.78,12.88s2.64,24.77,2.64,24.77c0,0-5.88-17.92-9.82-18.44s-3.94,5.28-.56,10.31c3.38,5.03,9.89,14.05,10.96,18.69,0,0-6.45-13.49-12.25-9.35-5.8,4.13,5.05,12.28,9.89,15.22,4.84,2.94,8.2,21.39,8.2,21.39l2.49-.71Z"/>
      <path class="cls-18" d="m332.47,336.28s-4.95-10.81.71-21.46c5.66-10.65,7.3-13.16,3.69-15.34-3.61-2.18-5.26,8.52-5.26,8.52,0,0-3.04-7.36-.53-15.07,2.51-7.71,4.09-20.26.66-21.61-3.43-1.35-.65,15.66-3.63,21.46,0,0-2.5-6.45-2.91-12.64s.23-16.07-2.48-18.61c-2.71-2.54-4.44-.78-1.78,12.88s2.64,24.77,2.64,24.77c0,0-5.88-17.92-9.82-18.44s-3.94,5.28-.56,10.31c3.38,5.03,9.89,14.05,10.96,18.69,0,0-6.45-13.49-12.25-9.35-5.8,4.13,5.05,12.28,9.89,15.22,4.84,2.94,8.2,21.39,8.2,21.39l2.49-.71Z"/>
      <path class="cls-24" d="m328.56,340.71s4.82-10.88-.96-21.45c-5.79-10.57-7.46-13.05-3.88-15.29,3.58-2.24,5.36,8.44,5.36,8.44,0,0,2.95-7.41.35-15.08-2.6-7.67-4.33-20.2-.92-21.59s.84,15.65,3.89,21.4c0,0,2.42-6.49,2.76-12.69.34-6.2-.42-16.07,2.25-18.65,2.68-2.58,4.43-.85,1.94,12.85-2.5,13.7-2.34,24.8-2.34,24.8,0,0,5.66-18.01,9.6-18.59,3.94-.58,4,5.22.69,10.3-3.32,5.08-9.72,14.2-10.73,18.85,0,0,6.29-13.58,12.14-9.53s-4.9,12.35-9.71,15.37c-4.8,3.02-7.94,21.51-7.94,21.51l-2.5-.68Z"/>
      <polygon class="cls-26" points="350.8 332.96 310.96 332.96 314.19 361.47 347.58 361.47 350.8 332.96"/>
    </g>
  </g>
  <g id="Window">
    <g>
      <rect class="cls-18" x="216.01" y="49.45" width="215.52" height="191.98" rx="2.48" ry="2.48"/>
      <rect class="cls-24" x="207.86" y="45.9" width="215.52" height="191.98" rx="2.48" ry="2.48"/>
      <path class="cls-10" d="m207.86,62.99v172.41c0,1.37.92,2.48,2.05,2.48h211.41c1.13,0,2.05-1.11,2.05-2.48V62.99h-215.52Z"/>
      <rect class="cls-2" x="210.41" y="73.16" width="210.41" height="152.27"/>
      <g>
        <ellipse class="cls-10" cx="416.34" cy="53.94" rx="3.16" ry="3.81"/>
        <ellipse class="cls-10" cx="405.99" cy="53.94" rx="3.16" ry="3.81"/>
        <path class="cls-10" d="m398.79,53.94c0,2.1-1.41,3.81-3.16,3.81s-3.16-1.7-3.16-3.81,1.41-3.81,3.16-3.81,3.16,1.7,3.16,3.81Z"/>
      </g>
      <g>
        <g>
          <g>
            <polygon class="cls-24" points="255.24 90.93 255.24 130.21 245.14 142.39 222.77 142.39 222.77 90.93 255.24 90.93"/>
            <polygon class="cls-7" points="255.24 90.93 255.24 130.21 245.14 142.39 222.77 142.39 222.77 90.93 255.24 90.93"/>
            <polygon class="cls-16" points="255.24 130.21 245.14 142.39 245.14 130.21 255.24 130.21"/>
          </g>
          <g>
            <rect class="cls-16" x="227.81" y="98.35" width="22.4" height="1.47"/>
            <rect class="cls-16" x="227.81" y="103.94" width="22.4" height="1.47"/>
            <rect class="cls-16" x="227.81" y="109.53" width="22.4" height="1.48"/>
            <rect class="cls-16" x="227.81" y="115.12" width="22.4" height="1.47"/>
            <rect class="cls-16" x="227.81" y="120.71" width="16.61" height="1.48"/>
          </g>
        </g>
        <g>
          <g>
            <polygon class="cls-24" points="306.74 90.93 306.74 130.21 296.64 142.39 274.27 142.39 274.27 90.93 306.74 90.93"/>
            <polygon class="cls-7" points="306.74 90.93 306.74 130.21 296.64 142.39 274.27 142.39 274.27 90.93 306.74 90.93"/>
            <polygon class="cls-16" points="306.74 130.21 296.64 142.39 296.64 130.21 306.74 130.21"/>
          </g>
          <g>
            <rect class="cls-16" x="279.3" y="98.35" width="22.4" height="1.47"/>
            <rect class="cls-16" x="279.3" y="103.94" width="22.4" height="1.47"/>
            <rect class="cls-16" x="279.3" y="109.53" width="22.4" height="1.48"/>
            <rect class="cls-16" x="279.3" y="115.12" width="22.4" height="1.47"/>
            <rect class="cls-16" x="279.3" y="120.71" width="16.61" height="1.48"/>
          </g>
        </g>
        <g>
          <g>
            <polygon class="cls-24" points="358.24 90.93 358.24 130.21 348.14 142.39 325.77 142.39 325.77 90.93 358.24 90.93"/>
            <polygon class="cls-7" points="358.24 90.93 358.24 130.21 348.14 142.39 325.77 142.39 325.77 90.93 358.24 90.93"/>
            <polygon class="cls-16" points="358.24 130.21 348.14 142.39 348.14 130.21 358.24 130.21"/>
          </g>
          <g>
            <rect class="cls-16" x="330.8" y="98.35" width="22.4" height="1.47"/>
            <rect class="cls-16" x="330.8" y="103.94" width="22.4" height="1.47"/>
            <rect class="cls-16" x="330.8" y="109.53" width="22.4" height="1.48"/>
            <rect class="cls-16" x="330.8" y="115.12" width="22.4" height="1.47"/>
            <rect class="cls-16" x="330.8" y="120.71" width="16.61" height="1.48"/>
          </g>
        </g>
        <g>
          <g>
            <polygon class="cls-24" points="409.74 90.93 409.74 130.21 399.63 142.39 377.27 142.39 377.27 90.93 409.74 90.93"/>
            <polygon class="cls-7" points="409.74 90.93 409.74 130.21 399.63 142.39 377.27 142.39 377.27 90.93 409.74 90.93"/>
            <polygon class="cls-16" points="409.74 130.21 399.63 142.39 399.63 130.21 409.74 130.21"/>
          </g>
          <g>
            <rect class="cls-16" x="382.3" y="98.35" width="22.4" height="1.47"/>
            <rect class="cls-16" x="382.3" y="103.94" width="22.4" height="1.47"/>
            <rect class="cls-16" x="382.3" y="109.53" width="22.4" height="1.48"/>
            <rect class="cls-16" x="382.3" y="115.12" width="22.4" height="1.47"/>
            <rect class="cls-16" x="382.3" y="120.71" width="16.61" height="1.48"/>
          </g>
        </g>
        <g>
          <g>
            <g>
              <polygon class="cls-24" points="255.24 158.93 255.24 198.21 245.14 210.39 222.77 210.39 222.77 158.93 255.24 158.93"/>
              <polygon class="cls-7" points="255.24 158.93 255.24 198.21 245.14 210.39 222.77 210.39 222.77 158.93 255.24 158.93"/>
              <polygon class="cls-16" points="255.24 198.21 245.14 210.39 245.14 198.21 255.24 198.21"/>
            </g>
            <g>
              <rect class="cls-16" x="227.81" y="166.35" width="22.4" height="1.47"/>
              <rect class="cls-16" x="227.81" y="171.94" width="22.4" height="1.47"/>
              <rect class="cls-16" x="227.81" y="177.53" width="22.4" height="1.48"/>
              <rect class="cls-16" x="227.81" y="183.12" width="22.4" height="1.48"/>
              <rect class="cls-16" x="227.81" y="188.71" width="16.61" height="1.47"/>
            </g>
          </g>
          <g>
            <g>
              <polygon class="cls-24" points="306.74 158.93 306.74 198.21 296.64 210.39 274.27 210.39 274.27 158.93 306.74 158.93"/>
              <polygon class="cls-7" points="306.74 158.93 306.74 198.21 296.64 210.39 274.27 210.39 274.27 158.93 306.74 158.93"/>
              <polygon class="cls-16" points="306.74 198.21 296.64 210.39 296.64 198.21 306.74 198.21"/>
            </g>
            <g>
              <rect class="cls-16" x="279.3" y="166.35" width="22.4" height="1.47"/>
              <rect class="cls-16" x="279.3" y="171.94" width="22.4" height="1.47"/>
              <rect class="cls-16" x="279.3" y="177.53" width="22.4" height="1.48"/>
              <rect class="cls-16" x="279.3" y="183.12" width="22.4" height="1.48"/>
              <rect class="cls-16" x="279.3" y="188.71" width="16.61" height="1.47"/>
            </g>
          </g>
          <g>
            <g>
              <polygon class="cls-24" points="358.24 158.93 358.24 198.21 348.14 210.39 325.77 210.39 325.77 158.93 358.24 158.93"/>
              <polygon class="cls-7" points="358.24 158.93 358.24 198.21 348.14 210.39 325.77 210.39 325.77 158.93 358.24 158.93"/>
              <polygon class="cls-16" points="358.24 198.21 348.14 210.39 348.14 198.21 358.24 198.21"/>
            </g>
            <g>
              <rect class="cls-16" x="330.8" y="166.35" width="22.4" height="1.47"/>
              <rect class="cls-16" x="330.8" y="171.94" width="22.4" height="1.47"/>
              <rect class="cls-16" x="330.8" y="177.53" width="22.4" height="1.48"/>
              <rect class="cls-16" x="330.8" y="183.12" width="22.4" height="1.48"/>
              <rect class="cls-16" x="330.8" y="188.71" width="16.61" height="1.47"/>
            </g>
          </g>
          <g>
            <g>
              <polygon class="cls-24" points="409.74 158.93 409.74 198.21 399.63 210.39 377.27 210.39 377.27 158.93 409.74 158.93"/>
              <polygon class="cls-7" points="409.74 158.93 409.74 198.21 399.63 210.39 377.27 210.39 377.27 158.93 409.74 158.93"/>
              <polygon class="cls-16" points="409.74 198.21 399.63 210.39 399.63 198.21 409.74 198.21"/>
            </g>
            <g>
              <rect class="cls-16" x="382.3" y="166.35" width="22.4" height="1.47"/>
              <rect class="cls-16" x="382.3" y="171.94" width="22.4" height="1.47"/>
              <rect class="cls-16" x="382.3" y="177.53" width="22.4" height="1.48"/>
              <rect class="cls-16" x="382.3" y="183.12" width="22.4" height="1.48"/>
              <rect class="cls-16" x="382.3" y="188.71" width="16.61" height="1.47"/>
            </g>
          </g>
        </g>
      </g>
    </g>
  </g>
  <g id="Padlock">
    <g>
      <rect class="cls-19" x="273.78" y="126.4" width="60.53" height="47.54" rx="4.35" ry="4.35"/>
      <g class="cls-19">
        <path d="m326.25,124.19h-6v-6.49c0-8.53-6.94-15.46-15.46-15.46s-15.46,6.94-15.46,15.46v6.49h-6v-6.49c0-11.83,9.63-21.46,21.46-21.46s21.46,9.63,21.46,21.46v6.49Z"/>
      </g>
      <rect class="cls-26" x="248.78" y="124.4" width="60.53" height="47.54" rx="4.35" ry="4.35"/>
      <rect class="cls-8" x="248.78" y="124.4" width="49.58" height="47.54" rx="4.35" ry="4.35"/>
      <path class="cls-26" d="m276.61,142.24c0-3.28-2-5.93-4.46-5.93s-4.46,2.66-4.46,5.93c0,2.49,1.16,4.62,2.79,5.5l-.82,12.4h4.98l-.82-12.4c1.64-.88,2.79-3.01,2.79-5.5Z"/>
      <g>
        <path class="cls-26" d="m301.25,122.19h-6v-6.49c0-8.53-6.94-15.46-15.46-15.46s-15.46,6.94-15.46,15.46v6.49h-6v-6.49c0-11.83,9.63-21.46,21.46-21.46s21.46,9.63,21.46,21.46v6.49Z"/>
        <g class="cls-14">
          <path class="cls-2" d="m301.25,122.19h-6v-6.49c0-8.53-6.94-15.46-15.46-15.46s-15.46,6.94-15.46,15.46v6.49h-6v-6.49c0-11.83,9.63-21.46,21.46-21.46s21.46,9.63,21.46,21.46v6.49Z"/>
        </g>
        <path class="cls-8" d="m301.25,115.7v6.49h-4.07v-7.23c0-10.83-8.78-19.6-19.61-19.6-4.09,0-7.88,1.27-10.99,3.45,3.65-2.86,8.24-4.57,13.21-4.57,11.83,0,21.46,9.62,21.46,21.46Z"/>
      </g>
    </g>
  </g>
  <g id="Desk">
    <g>
      <path class="cls-24" d="m216.46,230.68h-24.24v-.93h5.48c.76,0,1.41-.55,1.54-1.3l2.45-14.58.48-2.87h8.3l7.43,17.53c.43,1.03-.32,2.16-1.43,2.16Z"/>
      <path class="cls-9" d="m216.46,230.68h-24.24v-.93h5.48c.76,0,1.41-.55,1.54-1.3l2.45-14.58.48-2.87h8.3l7.43,17.53c.43,1.03-.32,2.16-1.43,2.16Z"/>
      <path class="cls-18" d="m216.49,229.74h-18.8c.76,0,1.41-.55,1.54-1.3l2.45-14.58h8.7l6.62,15.11c.16.36-.11.77-.5.77Z"/>
      <g>
        <path class="cls-24" d="m229.49,216.37h-48.49c-.48,0-.8-.39-.71-.88l6.89-36.43c.09-.48.56-.88,1.04-.88h48.49c.48,0,.8.39.71.88l-6.89,36.43c-.09.48-.56.88-1.04.88Z"/>
        <path class="cls-9" d="m229.49,216.37h-48.49c-.48,0-.8-.39-.71-.88l6.89-36.43c.09-.48.56-.88,1.04-.88h48.49c.48,0,.8.39.71.88l-6.89,36.43c-.09.48-.56.88-1.04.88Z"/>
        <path class="cls-26" d="m228.49,216.37h-48.49c-.48,0-.8-.39-.71-.88l6.89-36.43c.09-.48.56-.88,1.04-.88h48.49c.48,0,.8.39.71.88l-6.89,36.43c-.09.48-.56.88-1.04.88Z"/>
        <polygon class="cls-24" points="227.85 214.13 181.49 214.13 187.87 180.41 234.22 180.41 227.85 214.13"/>
      </g>
    </g>
    <g>
      <path class="cls-24" d="m147.05,230.68v-1.14l18.67-3.77h36.5c1.35,0,2.45,1.1,2.45,2.45h0c0,1.35-1.1,2.45-2.45,2.45h-55.17Z"/>
      <path class="cls-9" d="m204.67,228.22c0,.67-.27,1.29-.71,1.73-.45.44-1.06.72-1.74.72h-55.17v-1.13l18.67-3.78h36.5c1.36,0,2.45,1.1,2.45,2.46Z"/>
      <path class="cls-9" d="m204.67,228.22c0,.67-.27,1.29-.71,1.73-.45.44-1.06.72-1.74.72h-22.17v-1.13l18.67-3.78h3.5c1.36,0,2.45,1.1,2.45,2.46Z"/>
    </g>
    <g>
      <g>
        <polygon class="cls-26" points="218.01 361.47 223.01 361.47 231.98 236.52 225.35 236.52 218.01 361.47"/>
        <polygon class="cls-6" points="218.01 361.47 223.01 361.47 231.54 242.73 231.98 236.73 225.35 236.73 224.99 242.73 218.01 361.47"/>
        <polygon class="cls-18" points="224.99 242.43 231.54 242.43 231.98 236.73 225.35 236.73 224.99 242.43"/>
      </g>
      <g>
        <polygon class="cls-26" points="181.36 361.47 186.35 361.47 187.17 236.52 180.54 236.52 181.36 361.47"/>
        <polygon class="cls-6" points="180.54 236.73 180.67 256.88 181.35 361.47 186.35 361.47 187.03 256.88 187.17 236.73 180.54 236.73"/>
        <polygon class="cls-18" points="180.54 236.73 180.67 257.11 187.03 257.11 187.17 236.73 180.54 236.73"/>
      </g>
      <g>
        <polygon class="cls-26" points="128.33 361.47 133.32 361.47 142.3 236.52 135.67 236.52 128.33 361.47"/>
        <polygon class="cls-6" points="128.33 361.47 133.32 361.47 141.86 242.73 142.3 236.73 135.67 236.73 135.31 242.73 128.33 361.47"/>
        <polygon class="cls-18" points="135.31 242.43 141.86 242.43 142.3 236.73 135.67 236.73 135.31 242.43"/>
      </g>
      <g>
        <polygon class="cls-26" points="275.15 361.47 280.14 361.47 272.8 236.52 266.17 236.52 275.15 361.47"/>
        <polygon class="cls-6" points="266.18 236.73 266.62 242.73 275.15 361.47 280.14 361.47 273.16 242.73 272.8 236.73 266.18 236.73"/>
        <polygon class="cls-18" points="272.8 236.73 266.18 236.73 266.62 242.43 273.16 242.43 272.8 236.73"/>
      </g>
      <g>
        <path class="cls-24" d="m132.58,233.4h143.31c1.19,0,2.16.97,2.16,2.16v4.1h-147.64v-4.1c0-1.19.97-2.16,2.16-2.16Z" transform="translate(408.47 473.05) rotate(180)"/>
        <path class="cls-9" d="m132.58,233.4h143.31c1.19,0,2.16.97,2.16,2.16v4.1h-147.64v-4.1c0-1.19.97-2.16,2.16-2.16Z" transform="translate(408.47 473.05) rotate(180)"/>
      </g>
      <rect class="cls-18" x="130.42" y="233.4" width="147.64" height="3.13" transform="translate(408.47 469.92) rotate(180)"/>
      <g>
        <path class="cls-24" d="m127.32,234.21h153.83c.97,0,1.76-.79,1.76-1.76h0c0-.97-.79-1.76-1.76-1.76H127.32c-.97,0-1.76.79-1.76,1.76h0c0,.97.79,1.76,1.76,1.76Z"/>
        <path class="cls-9" d="m127.32,234.21h153.83c.97,0,1.76-.79,1.76-1.76h0c0-.97-.79-1.76-1.76-1.76H127.32c-.97,0-1.76.79-1.76,1.76h0c0,.97.79,1.76,1.76,1.76Z"/>
      </g>
    </g>
    <g>
      <g>
        <path class="cls-5" d="m190.44,199.3c-.45,0-.87-.2-1.15-.54-.28-.35-.4-.8-.31-1.23l.62-3.19c.17-.89.96-1.54,1.87-1.54h26.01c.45,0,.87.2,1.15.54.28.35.4.8.31,1.23l-.62,3.19c-.17.89-.96,1.54-1.87,1.54h-26.01Z"/>
        <path class="cls-2" d="m216.45,198.8h-26.01c-.62,0-1.09-.57-.97-1.18l.62-3.19c.13-.66.71-1.14,1.38-1.14h26.01c.62,0,1.09.57.97,1.18l-.62,3.19c-.13.66-.71,1.14-1.38,1.14Z"/>
        <g>
          <path class="cls-26" d="m195.17,196.05c-.16.83-.91,1.51-1.66,1.51s-1.24-.68-1.07-1.51c.16-.83.91-1.51,1.66-1.51s1.24.68,1.07,1.51Z"/>
          <path class="cls-26" d="m199.23,196.05c-.16.83-.91,1.51-1.66,1.51s-1.24-.68-1.07-1.51c.16-.83.91-1.51,1.66-1.51s1.24.68,1.07,1.51Z"/>
          <path class="cls-26" d="m203.3,196.05c-.16.83-.91,1.51-1.66,1.51s-1.24-.68-1.07-1.51c.16-.83.91-1.51,1.66-1.51s1.24.68,1.07,1.51Z"/>
          <path class="cls-26" d="m207.36,196.05c-.16.83-.91,1.51-1.66,1.51s-1.24-.68-1.07-1.51c.16-.83.91-1.51,1.66-1.51s1.24.68,1.07,1.51Z"/>
          <path class="cls-26" d="m211.43,196.05c-.16.83-.91,1.51-1.66,1.51s-1.24-.68-1.07-1.51c.16-.83.91-1.51,1.66-1.51s1.24.68,1.07,1.51Z"/>
          <path class="cls-26" d="m215.49,196.05c-.16.83-.91,1.51-1.66,1.51s-1.24-.68-1.07-1.51c.16-.83.91-1.51,1.66-1.51s1.24.68,1.07,1.51Z"/>
        </g>
      </g>
      <g>
        <g>
          <path class="cls-5" d="m220.08,199.3c-.35,0-.67-.15-.89-.41-.21-.26-.3-.61-.23-.97l.79-3.96c.13-.66.75-1.18,1.42-1.18h3.96c.35,0,.67.15.89.41.21.26.3.61.23.97l-.79,3.96c-.13.66-.75,1.18-1.42,1.18h-3.96Z"/>
          <path class="cls-26" d="m220.08,198.8h3.96c.43,0,.85-.35.93-.78l.79-3.96c.09-.43-.19-.78-.62-.78h-3.96c-.43,0-.85.35-.93.78l-.79,3.96c-.09.43.19.78.62.78Z"/>
        </g>
        <g>
          <path class="cls-24" d="m222.11,197.8c-.06,0-.12-.02-.16-.07-.08-.1-.05-.26.07-.35l1.59-1.32-1.06-1.32c-.08-.1-.05-.26.07-.35.12-.1.28-.1.35,0l1.2,1.5c.08.1.05.26-.07.35l-1.8,1.5c-.06.05-.13.07-.19.07Z"/>
          <path class="cls-24" d="m223.91,196.3h-2.7c-.14,0-.23-.11-.2-.25.03-.14.16-.25.3-.25h2.7c.14,0,.23.11.2.25-.03.14-.16.25-.3.25Z"/>
        </g>
      </g>
    </g>
  </g>
  <g id="Speech_bubble" data-name="Speech bubble">
    <g>
      <rect class="cls-24" x="132.15" y="105.44" width="29.8" height="29.8" rx="4.12" ry="4.12" transform="translate(294.1 240.68) rotate(180)"/>
      <polygon class="cls-24" points="144.72 134.13 147.05 144.15 149.38 134.13 144.72 134.13"/>
      <g>
        <path class="cls-4" d="m146.79,129.28c-8.78-5.36-8.62-14.45-8.62-14.54v-.32s8.88-3.78,8.88-3.78l8.87,3.78v.32c.01.09.17,9.18-8.61,14.54l-.26.16-.26-.16Z"/>
        <path class="cls-10" d="m147.05,111.18l8.38,3.57s.26,8.83-8.38,14.1v-17.67Z"/>
        <path class="cls-3" d="m147.05,111.18l-8.38,3.57s-.26,8.83,8.38,14.1v-17.67Z"/>
      </g>
    </g>
  </g>
  <g id="Character">
    <g id="_Group_" data-name="&amp;lt;Group&amp;gt;">
      <path class="cls-25" d="m139,224.16l6.99,1.05s2.37-.78,4.88-1.05,5.41,0,5.41,0c0,0,3.16,1.19,3.16,4.22,0,0-7.38,1.98-10.22.79l-10.22-.79v-4.22Z"/>
      <path class="cls-18" d="m139,224.16l6.99,1.05s2.37-.78,4.88-1.05,5.41,0,5.41,0c0,0,3.16,1.19,3.16,4.22,0,0-7.38,1.98-10.22.79l-10.22-.79v-4.22Z"/>
      <g>
        <g>
          <path class="cls-13" d="m156.34,176.88s.18,2.51.84,4.24c0,0-1.14.77-2.45-.03l1.61-4.21Z"/>
          <path class="cls-26" d="m159.07,174.89c-.27.65-.75,1.06-1.07.93s-.37-.77-.1-1.41c.27-.65.75-1.06,1.07-.93.32.13.37.77.1,1.41Z"/>
          <path class="cls-20" d="m160.71,172.29s-2.06-1.25-3.9-.32"/>
        </g>
        <path class="cls-25" d="m154.39,182.33c-.23.28-.46.55-.7.8-1.46,1.51-3.29,2.46-5.19,2.85-.5.1-1.01.17-1.52.2-2.68.14-5.36-.82-7.24-2.89-.77-.84-1.42-1.88-1.86-3.1-1.78-4.8.03-8.58,2.59-15.23.53-1.44,1.38-2.74,2.5-3.78,3.93-3.68,10.09-3.46,13.76.46,5.18,5.46,1.69,15.5-2.35,20.69Z"/>
        <path class="cls-18" d="m148.49,185.98c-.5.1-1.01.17-1.52.2-2.68.14-5.36-.82-7.24-2.89,1.02-1.05,2.15-1.68,2.15-1.68,0,0,4.14,1.15,6.6,4.37Z"/>
        <path class="cls-25" d="m126.93,186.23c.65,4.69,10.89,6.43,10.89,6.43,0,0,5.05,2.3,5.26.3-2.09-2.42-2.32-4.53-1.6-6.38.42-1.08,1.17-2.06,2.06-2.97.46-.48.97-.94,1.49-1.38l-3.12-12.82c-2.25,4.87-9.94,16.13-14.98,16.82Z"/>
        <path class="cls-26" d="m156.15,158.01s2.19-.27,3.86,3.81c1.41,3.44-1.91,4.18-1.77,7.83.14,3.65-3.19,5.68-3.19,5.68,0,0-2.81,2.42-5.19,1.11,0,0-3.12,1.53-3.94,4.2-.82,2.67-5.65-2.15-10-1.42,0,0-2.94-2.75-2.73-9.43.14-4.41,2.1-8.38,2.1-8.38,0,0,1.27-3.98,6.24-6.2s13.68-.53,14.62,2.8Z"/>
        <path class="cls-25" d="m149.26,174.47c-.25,1.58.06,2.97.85,3.85,1.07,1.16,2.77-.31,3.46-2.34.6-1.81.81-4.64-.75-4.96-1.56-.32-3.24,1.5-3.57,3.45Z"/>
      </g>
      <path class="cls-26" d="m150.36,190.1c-1.43,3.98-2.71,7.82-3.84,11.5-.72,2.28-1.38,4.51-1.99,6.66-.51,1.81-.98,3.56-1.42,5.26-.21.82-.42,1.63-.62,2.43-1.1,4.41-1.99,8.43-2.69,11.97-2.1,10.54-2.59,16.87-2.59,16.87l-39.25-4.91c1.36-6.74,2.42-12.63,3.9-18.98.82-3.48,1.75-7.1,2.95-11.07.84-2.85,1.82-5.88,2.98-9.17,3.94-11.3,7.57-14.43,7.57-14.43,15.1-2.42,35,3.87,35,3.87Z"/>
      <path class="cls-25" d="m163.41,224.89l6.99,1.05s2.37-.78,4.88-1.05c2.51-.26,5.41,0,5.41,0,0,0,3.16,1.19,3.16,4.22,0,0-7.38,1.98-10.22.79l-10.22-.79v-4.22Z"/>
      <g>
        <polygon class="cls-17" points="120.09 354.16 127.39 354.29 131.03 337.43 123.73 337.31 120.09 354.16"/>
        <polygon class="cls-18" points="123.73 337.31 131.03 337.44 128.95 347.08 121.72 346.59 123.73 337.31"/>
      </g>
      <path class="cls-24" d="m143.57,312.9c-4.82,18.32-10.65,31.44-10.65,31.44l-13.34-1.02s5.47-21.37,7.45-40.95c1.23-12.08,1.12-22.08-2.42-22.86-2.23-.49-7.44-.47-14.11-.32v-24.87c18.73,3.85,37.37,11.1,38.78,16.92,1.98,8.19-1.48,25.53-5.73,41.66Z"/>
      <g>
        <polygon class="cls-24" points="118.17 343.94 134.05 345 136.39 338.13 118.89 337.31 118.17 343.94"/>
        <polygon class="cls-8" points="118.17 343.94 134.05 345 136.39 338.13 118.89 337.31 118.17 343.94"/>
      </g>
      <path class="cls-24" d="m128.49,353.93s.15.01.15.02c0,.03.16.05.18.07.01.02.01.04.03.05.02,0,.04,0,.06,0,.62.19,1.26.32,1.9.38.48.09.98-.01,1.39-.27.26-.23.36-.6.26-.94-.03-.22-.17-.41-.37-.51-.47-.21-1.31.05-2.02.37.45-.56.78-1.22.72-1.67-.05-.3-.32-.52-.62-.55-.26-.05-.6.02-.81.19-.76.66-.88,2.72-.88,2.85h0Zm.78-.41c-.06.03-.1.06-.15.08.03-.69.16-1.85.62-2.23.1-.09.24-.14.37-.13h.08c.24.05.3.18.31.28.04.49-.61,1.47-1.23,2.01Zm.11.36c.88-.49,2.13-1.02,2.6-.8.1.05.17.14.18.25.06.21,0,.44-.16.6-.37.31-1.33.29-2.61-.04Z"/>
      <path class="cls-26" d="m128.32,353.03l-8.18-.51c-.28-.03-.54.18-.57.46,0,0,0,0,0,0l-.8,6.46c-.04.71.49,1.32,1.19,1.37,2.86.13,4.23.05,7.83.25,2.21.13,6.57.6,9.62.31,3.05-.3,2.68-3.3,1.36-3.45-3.12-.36-7.26-2.65-9.21-4.39-.34-.3-.77-.47-1.23-.5Z"/>
      <path class="cls-18" d="m143.57,312.9c-4.98-3.15-10.81-6.86-16.53-10.53,1.23-12.08,1.12-22.08-2.42-22.86-2.23-.49-7.44-.47-14.11-.32v-24.87c18.73,3.85,37.37,11.1,38.78,16.92,1.98,8.19-1.48,25.53-5.73,41.66Z"/>
      <g>
        <polygon class="cls-17" points="162.82 354.16 170.12 354.29 173.76 337.43 166.46 337.31 162.82 354.16"/>
        <polygon class="cls-18" points="166.46 337.31 173.76 337.44 171.68 347.08 164.45 346.59 166.46 337.31"/>
      </g>
      <path class="cls-24" d="m136.27,251.88l1.18-9.44-38.17-6.28s-12.48,24.73-6.37,36.86c5.61,11.12,65.27,4.5,74.45,6.5,9.28,2.03-5.04,63.8-5.04,63.8l13.34,1.02s20.61-55.6,16.37-73.09c-1.85-7.63-33.3-17.73-55.75-19.37Z"/>
      <g>
        <polygon class="cls-24" points="160.9 343.94 176.78 345 179.12 338.13 161.62 337.31 160.9 343.94"/>
        <polygon class="cls-8" points="160.9 343.94 176.78 345 179.12 338.13 161.62 337.31 160.9 343.94"/>
      </g>
      <path class="cls-24" d="m171.22,353.93s.15.01.15.02c0,.03.16.05.18.07.01.02.01.04.03.05.02,0,.04,0,.06,0,.62.19,1.26.32,1.9.38.48.09.98-.01,1.39-.27.26-.23.36-.6.27-.94-.03-.22-.17-.41-.37-.51-.47-.21-1.31.05-2.02.37.45-.56.78-1.22.72-1.67-.05-.3-.32-.52-.62-.55-.26-.05-.6.02-.81.19-.76.66-.88,2.72-.88,2.85h0Zm.78-.41c-.06.03-.1.06-.15.08.03-.69.16-1.85.62-2.23.1-.09.24-.14.37-.13h.08c.24.05.3.18.31.28.04.49-.61,1.47-1.23,2.01Zm.11.36c.88-.49,2.13-1.02,2.6-.8.1.05.17.14.18.25.06.21,0,.44-.16.6-.37.31-1.33.29-2.61-.04Z"/>
      <path class="cls-26" d="m171.05,353.03l-8.18-.51c-.28-.03-.54.18-.57.46,0,0,0,0,0,0l-.8,6.46c-.04.71.49,1.32,1.19,1.37,2.86.13,4.23.05,7.83.25,2.21.13,6.57.6,9.62.31,3.05-.3,2.68-3.3,1.36-3.45-3.12-.36-7.26-2.65-9.21-4.39-.34-.3-.77-.47-1.23-.5Z"/>
      <g>
        <polygon points="97.88 240.45 115.56 242.77 116.14 240.16 98.42 237.58 97.88 240.45"/>
        <polygon points="117.61 240.17 117.39 242.77 133.74 245.01 133.74 242.45 117.61 240.17"/>
        <polygon points="134.75 242.59 134.75 245.01 137.13 245.33 137.13 242.99 134.75 242.59"/>
      </g>
      <path class="cls-18" d="m146.52,201.6c-.72,2.28-1.38,4.51-1.99,6.66-.51,1.81-.98,3.56-1.42,5.26-1.23-6.7,1-14.7,1-14.7l2.41,2.78Z"/>
      <path class="cls-25" d="m150.36,190.09c3.19.65,4.25,25.44,4.38,28.07.13,2.64,15.66,7.77,15.66,7.77v3.61s-16.64-1.16-20.53-2.75-4.83-24.59-4.83-24.59l5.32-12.12Z"/>
      <path class="cls-26" d="m150.36,190.09c2.93.91,4.38,17.26,4.38,17.26l-9.06,3.65-2.25-9.09s-.64-1.85.62-5.75c1.83-5.64,6.3-6.07,6.3-6.07Z"/>
    </g>
    <g>
      <path class="cls-24" d="m82.78,271.57h72.25c4.37,0,7.91,3.55,7.91,7.91v4.23h-88.07v-4.23c0-4.37,3.55-7.91,7.91-7.91Z"/>
      <path class="cls-26" d="m106.27,241.5h48.49c2.49,0,4.34,2.32,3.78,4.75l-8.67,37.46h-2l7.39-32.83c.55-2.42-1.3-4.73-3.78-4.73h-44.21l-.99-4.65Z"/>
      <path class="cls-26" d="m124.63,285.02v31.65c0,1.02-.83,1.84-1.84,1.84h-7.76c-1.02,0-1.84-.82-1.84-1.84v-31.65h11.44Z"/>
      <g>
        <g>
          <path class="cls-26" d="m81.79,358.1c0-1.86-1.51-3.36-3.36-3.36s-3.36,1.51-3.36,3.36,1.51,3.36,3.36,3.36,3.36-1.51,3.36-3.36Z"/>
          <path class="cls-8" d="m80.11,358.1c0-.93-.75-1.68-1.68-1.68s-1.68.75-1.68,1.68.75,1.68,1.68,1.68,1.68-.75,1.68-1.68Z"/>
        </g>
        <g>
          <path class="cls-26" d="m162.74,358.1c0-1.86-1.51-3.36-3.36-3.36s-3.36,1.51-3.36,3.36,1.51,3.36,3.36,3.36,3.36-1.51,3.36-3.36Z"/>
          <path class="cls-8" d="m161.06,358.1c0-.93-.75-1.68-1.68-1.68s-1.68.75-1.68,1.68.75,1.68,1.68,1.68,1.68-.75,1.68-1.68Z"/>
        </g>
      </g>
      <path class="cls-26" d="m121.68,343.35v-36.18h-5.56v36.18c-21.66.56-34.83,8.13-37.46,9.79-.31.19-.49.53-.49.9v3.01c0,.59.48,1.06,1.06,1.06h0c.38,0,.73-.2.92-.54l1.28-2.25s14.9-5.31,34.68-5.74v5.95c0,.76.62,1.38,1.38,1.38h2.81c.76,0,1.38-.62,1.38-1.38v-5.95c19.78.43,34.68,5.74,34.68,5.74l1.28,2.25c.19.33.54.54.92.54h0c.59,0,1.06-.48,1.06-1.06v-3.01c0-.36-.18-.7-.49-.9-2.64-1.66-15.8-9.23-37.46-9.79Z"/>
      <rect class="cls-26" x="117.08" y="354.74" width="3.65" height="6.73"/>
      <rect class="cls-18" x="113.19" y="285.02" width="11.44" height="13.15"/>
      <path class="cls-26" d="m165.35,281.76v3.78c0,1.07-.87,1.93-1.94,1.93h-89.01c-1.07,0-1.93-.86-1.93-1.93v-3.78c0-1.06.86-1.93,1.93-1.93h89.01c1.07,0,1.94.87,1.94,1.93Z"/>
      <path class="cls-26" d="m124.4,283.71h-51.93s-16.5-27.44-16.5-72.78v-16.65c0-6.84,5.55-12.39,12.4-12.39h22.02c6.71,0,12.2,5.33,12.39,12.04.64,23.36,4.08,73.95,21.62,89.78Z"/>
      <path class="cls-8" d="m112.97,283.71h-38.16c-1.48,0-2.83-.81-3.51-2.12-3.76-7.24-15.34-32.67-15.34-70.66v-16.65c0-6.84,5.55-12.39,12.39-12.39h19.03c6.71,0,12.2,5.33,12.39,12.04.57,20.87,3.38,63.47,16.48,83.61,1.73,2.66-.11,6.17-3.28,6.17Z"/>
      <path class="cls-18" d="m165.35,281.76v3.78c0,1.07-.86,1.93-1.93,1.93h-39.89c-1.44,0-2.61-1.17-2.61-2.61v-2.42c0-1.44,1.17-2.61,2.61-2.61h39.88c1.07,0,1.94.87,1.94,1.93Z"/>
      <g>
        <path class="cls-24" d="m72.45,180.42l3.3-4.32s14.1.64,14.43,5.79c.34,5.15-17.73-1.47-17.73-1.47Z"/>
        <g>
          <path class="cls-24" d="m63.19,193.35s.86,22.89,0,82.01c-.03,1.99-7.46,1.93-7.98,0-1.79-6.73,0-60.47,0-60.47"/>
          <polygon class="cls-24" points="55.36 275.65 62.95 275.91 62.95 279.7 55.36 279.31 55.36 275.65"/>
          <path class="cls-11" d="m63.19,193.35s.86,22.89,0,82.01c-.03,1.99-7.46,1.93-7.98,0-1.79-6.73,0-60.47,0-60.47"/>
        </g>
        <path class="cls-24" d="m51.61,263.26c-.41-10.89-1.9-60.99,4.35-77.59,0,0,5.89-7.48,25.83-7.48s25.93,14.15,25.93,14.15c0,0,.86,22.89,0,82.01-.03,1.99-7.46,1.93-7.97,0-1.79-6.73,0-60.47,0-60.47l-3.99,48.89c-.06.69-.69,1.2-1.38,1.09-6.29-.97-34.03-4.89-41.33.11-.6.41-1.41.03-1.44-.7Z"/>
        <polygon class="cls-24" points="99.89 274.64 107.48 274.9 107.48 278.69 99.89 278.3 99.89 274.64"/>
        <path class="cls-24" d="m94.75,263.91l-.6,3.99s-30.93-6.75-40.95.44l-.59-4.43s7.74-7.13,42.14,0Z"/>
        <path class="cls-9" d="m51.61,263.26c-.41-10.89-1.9-60.99,4.35-77.59,0,0,5.89-7.48,25.83-7.48s25.93,14.15,25.93,14.15c0,0,.86,22.89,0,82.01-.03,1.99-7.46,1.93-7.97,0-1.79-6.73,0-60.47,0-60.47l-3.99,48.89c-.06.69-.69,1.2-1.38,1.09-6.29-.97-34.03-4.89-41.33.11-.6.41-1.41.03-1.44-.7Z"/>
        <path class="cls-18" d="m99.75,213.87s.44-15.52,7.97-21.54c0,0-9.43,4.06-7.97,21.54Z"/>
        <path class="cls-18" d="m77.07,179.98s-9.1,4.96-10.55,73.13c0,0-3.96-68.73,10.55-73.13Z"/>
      </g>
    </g>
  </g>
</svg>